<svg width="181" height="180" viewBox="0 0 181 180" fill="none" xmlns="http://www.w3.org/2000/svg">
<path d="M81.4589 54.3557C81.4589 53.9566 81.4589 53.5574 81.4589 53.1582C81.4759 51.6635 82.1297 50.5169 83.4799 49.9224C86.987 48.3597 90.5281 46.848 94.0691 45.3448C95.9204 44.5549 97.8055 44.6653 99.6228 45.3957C101.686 46.2195 103.707 47.1537 105.728 48.0625C110.484 50.2112 115.222 52.3939 119.986 54.5341C123.086 55.9269 124.334 58.9164 123.086 62.0928C121.005 67.4178 118.942 72.7514 116.836 78.0679C116.114 79.8939 116.148 81.6434 116.929 83.4354C120.436 91.4357 123.926 99.453 127.416 107.462C128.945 110.961 130.473 114.46 132.002 117.968C133.106 120.507 132.189 122.927 129.65 124.048C120.852 127.913 112.038 131.752 103.232 135.607C94.171 139.565 85.1103 143.523 76.0496 147.48C73.2813 148.695 70.9036 147.752 69.6808 144.949C64.6876 133.51 59.6775 122.078 54.6928 110.63C53.9116 108.829 52.6378 107.615 50.8121 106.91C45.4368 104.829 40.07 102.714 34.7032 100.6C31.7396 99.4275 30.3215 96.455 31.315 93.4655C33.4719 86.926 35.6373 80.378 37.8112 73.8384C38.0065 73.2439 38.2443 72.6664 38.4821 72.0889C39.3227 70.0591 40.7154 68.5728 42.7449 67.6811C46.1077 66.2118 49.4534 64.7086 52.8246 63.2478C54.2682 62.6278 55.7203 62.9675 56.7988 64.1141C60.2719 67.8255 64.5518 69.4391 69.5959 69.0994C73.9352 68.8021 76.8733 66.3477 79.1236 62.8826C80.7965 60.3008 81.5693 57.4387 81.4759 54.3472L81.4589 54.3557ZM100.005 53.413C99.0538 53.3875 98.7396 53.8207 98.4679 54.3218C97.364 56.3346 96.294 58.3644 95.1391 60.3517C94.8419 60.8613 94.3833 61.3624 93.8738 61.6511C91.8443 62.8316 89.7638 63.9187 87.7173 65.0568C86.5115 65.7277 86.5115 66.7893 87.7173 67.4518C89.7893 68.5983 91.8868 69.7109 93.9418 70.8829C94.3918 71.1377 94.8079 71.5623 95.0627 72.0125C96.2261 74.0508 97.3385 76.1145 98.4594 78.1783C98.7311 78.6879 99.0708 79.121 99.6992 79.1125C100.336 79.1125 100.65 78.6624 100.922 78.1528C102.017 76.1315 103.096 74.1102 104.251 72.1229C104.556 71.5963 105.049 71.0952 105.575 70.7895C107.537 69.6514 109.55 68.5983 111.545 67.5112C112.063 67.231 112.522 66.9167 112.505 66.2203C112.488 65.5239 112.012 65.2351 111.494 64.9549C109.499 63.8678 107.486 62.8062 105.533 61.6596C105.007 61.3539 104.531 60.8358 104.217 60.3092C103.053 58.3049 101.983 56.2412 100.829 54.2198C100.608 53.8292 100.175 53.5574 99.9879 53.3875L100.005 53.413Z" fill="url(#paint0_linear_1513_36)"/>
<path d="M128.283 24.9364C128.266 25.6583 127.917 26.1339 127.281 26.4736C124.427 28.0193 121.574 29.5735 118.746 31.1702C118.279 31.4335 117.846 31.8921 117.575 32.3592C116.021 35.1194 114.509 37.9135 112.997 40.6992C112.624 41.3871 112.148 41.8543 111.316 41.8543C110.484 41.8543 110.093 41.3022 109.745 40.6653C108.242 37.8966 106.748 35.1279 105.202 32.3932C104.922 31.9006 104.472 31.4335 103.979 31.1532C101.245 29.6075 98.468 28.1127 95.7082 26.618C95.0119 26.2358 94.4344 25.7857 94.4514 24.9194C94.4684 24.0956 95.0119 23.637 95.6912 23.2718C98.4765 21.7601 101.27 20.2483 104.03 18.7026C104.463 18.4563 104.871 18.0572 105.117 17.624C106.612 14.9657 108.055 12.282 109.516 9.61521C109.923 8.86784 110.28 8.03553 111.308 8.00156C112.378 7.9591 112.785 8.7914 113.21 9.56425C114.687 12.2565 116.139 14.9657 117.651 17.641C117.906 18.0911 118.347 18.4988 118.806 18.7536C121.574 20.3078 124.368 21.811 127.153 23.3227C127.807 23.6795 128.3 24.1296 128.283 24.9449V24.9364Z" fill="url(#paint1_linear_1513_36)"/>
<path d="M144.255 67.0863C143.398 66.959 143.05 66.4834 142.752 65.9398C141.708 64.0119 140.638 62.0925 139.619 60.1392C139.228 59.4003 138.71 58.8737 137.972 58.483C136.027 57.4639 134.108 56.3938 132.18 55.3492C131.628 55.0519 131.136 54.6952 131.153 53.9988C131.17 53.3109 131.671 52.9712 132.223 52.6739C134.244 51.5783 136.273 50.4997 138.252 49.3532C138.736 49.0729 139.186 48.5973 139.466 48.1047C140.562 46.2023 141.581 44.2574 142.634 42.3295C142.727 42.1512 142.829 41.9813 142.948 41.82C143.627 40.8178 144.68 40.8518 145.266 41.9134C146.438 44.0281 147.576 46.1683 148.773 48.2746C149.019 48.6992 149.427 49.0984 149.852 49.3447C151.932 50.5337 154.046 51.6632 156.152 52.8098C156.645 53.0816 157.112 53.4468 156.976 54.0158C156.866 54.4659 156.543 55.001 156.152 55.2303C154.08 56.4363 151.949 57.5318 149.869 58.7293C149.401 59.0011 148.968 59.4512 148.705 59.9183C147.525 61.9736 146.429 64.0799 145.257 66.1436C145.037 66.5343 144.595 66.7976 144.264 67.1118L144.255 67.0863Z" fill="url(#paint2_linear_1513_36)"/>
<defs>
<linearGradient id="paint0_linear_1513_36" x1="147.337" y1="18.1915" x2="74.7174" y2="156.618" gradientUnits="userSpaceOnUse">
<stop stop-color="#F9E833"/>
<stop offset="1" stop-color="#FF6E59"/>
</linearGradient>
<linearGradient id="paint1_linear_1513_36" x1="147.337" y1="18.1915" x2="74.7174" y2="156.618" gradientUnits="userSpaceOnUse">
<stop stop-color="#F9E833"/>
<stop offset="1" stop-color="#FF6E59"/>
</linearGradient>
<linearGradient id="paint2_linear_1513_36" x1="147.337" y1="18.1915" x2="74.7174" y2="156.618" gradientUnits="userSpaceOnUse">
<stop stop-color="#F9E833"/>
<stop offset="1" stop-color="#FF6E59"/>
</linearGradient>
</defs>
</svg>
