<svg width="22" height="22" viewBox="0 0 22 22" fill="none" xmlns="http://www.w3.org/2000/svg">
<path d="M21.36 9H11V13.26H16.92C16.66 14.63 15.88 15.79 14.71 16.57C13.73 17.23 12.48 17.63 11 17.63C8.14 17.63 5.71 15.7 4.84 13.1C4.62 12.43 4.49 11.73 4.49 11C4.49 10.27 4.62 9.57 4.84 8.91C5.71 6.31 8.14 4.38 11 4.38C12.62 4.38 14.06 4.94 15.21 6.02L18.36 2.87C16.45 1.09 13.97 0 11 0C6.7 0 2.99 2.47 1.18 6.07C0.43 7.55 0 9.22 0 11C0 12.78 0.43 14.45 1.18 15.93C2.99 19.53 6.7 22 11 22C13.97 22 16.46 21.02 18.28 19.34C20.36 17.42 21.56 14.6 21.56 11.25C21.56 10.47 21.49 9.72 21.36 9Z" fill="white"/>
</svg>
